<?xml version="1.0" encoding="utf-8"?>
<!-- Generator: Adobe Illustrator 22.1.0, SVG Export Plug-In . SVG Version: 6.00 Build 0)  -->
<svg version="1.1" id="Layer_1" xmlns="http://www.w3.org/2000/svg" xmlns:xlink="http://www.w3.org/1999/xlink" x="0px" y="0px"
	 viewBox="0 0 87.3 50.9" style="enable-background:new 0 0 87.3 50.9;" xml:space="preserve">
<style type="text/css">
	.st0{fill:#3AAA35;}
	.st1{clip-path:url(#SVGID_2_);fill:#3AAA35;}
	.st2{clip-path:url(#SVGID_4_);fill:#3AAA35;}
	.st3{clip-path:url(#SVGID_6_);fill:#3AAA35;}
	.st4{clip-path:url(#SVGID_8_);fill:#3AAA35;}
	.st5{clip-path:url(#SVGID_10_);fill:#3AAA35;}
	.st6{clip-path:url(#SVGID_12_);fill:#3AAA35;}
	.st7{clip-path:url(#SVGID_14_);fill:#3AAA35;}
	.st8{clip-path:url(#SVGID_16_);fill:#3AAA35;}
	.st9{clip-path:url(#SVGID_18_);fill:#3AAA35;}
	.st10{clip-path:url(#SVGID_20_);fill:#3AAA35;}
	.st11{clip-path:url(#SVGID_22_);fill:#3AAA35;}
	.st12{clip-path:url(#SVGID_24_);fill:#3AAA35;}
	.st13{clip-path:url(#SVGID_26_);fill:#3AAA35;}
	.st14{clip-path:url(#SVGID_28_);fill:#3AAA35;}
	.st15{clip-path:url(#SVGID_30_);fill:#3AAA35;}
	.st16{clip-path:url(#SVGID_32_);fill:#3AAA35;}
	.st17{clip-path:url(#SVGID_34_);fill:#3AAA35;}
	.st18{clip-path:url(#SVGID_36_);fill:#3AAA35;}
	.st19{clip-path:url(#SVGID_38_);fill:#3AAA35;}
	.st20{clip-path:url(#SVGID_40_);fill:#3AAA35;}
	.st21{clip-path:url(#SVGID_42_);fill:#3AAA35;}
	.st22{clip-path:url(#SVGID_44_);fill:#3AAA35;}
	.st23{clip-path:url(#SVGID_46_);fill:#3AAA35;}
	.st24{clip-path:url(#SVGID_48_);fill:#3AAA35;}
	.st25{clip-path:url(#SVGID_50_);fill:#3AAA35;}
	.st26{clip-path:url(#SVGID_52_);fill:#3AAA35;}
	.st27{clip-path:url(#SVGID_54_);fill:#3AAA35;}
	.st28{clip-path:url(#SVGID_56_);fill:#3AAA35;}
	.st29{clip-path:url(#SVGID_58_);fill:#3AAA35;}
	.st30{clip-path:url(#SVGID_60_);fill:#3AAA35;}
	.st31{clip-path:url(#SVGID_62_);fill:#3AAA35;}
	.st32{clip-path:url(#SVGID_64_);fill:#3AAA35;}
	.st33{clip-path:url(#SVGID_66_);fill:#3AAA35;}
	.st34{clip-path:url(#SVGID_68_);fill:#3AAA35;}
	.st35{clip-path:url(#SVGID_70_);fill:#3AAA35;}
	.st36{clip-path:url(#SVGID_72_);fill:#3AAA35;}
	.st37{clip-path:url(#SVGID_74_);fill:#3AAA35;}
	.st38{clip-path:url(#SVGID_76_);fill:#3AAA35;}
	.st39{clip-path:url(#SVGID_78_);fill:#3AAA35;}
	.st40{clip-path:url(#SVGID_80_);fill:#3AAA35;}
	.st41{clip-path:url(#SVGID_82_);fill:#3AAA35;}
	.st42{clip-path:url(#SVGID_84_);fill:#3AAA35;}
	.st43{clip-path:url(#SVGID_86_);fill:#3AAA35;}
	.st44{clip-path:url(#SVGID_88_);fill:#3AAA35;}
	.st45{clip-path:url(#SVGID_90_);fill:#3AAA35;}
	.st46{clip-path:url(#SVGID_92_);fill:#3AAA35;}
	.st47{clip-path:url(#SVGID_94_);fill:#3AAA35;}
	.st48{clip-path:url(#SVGID_96_);fill:#3AAA35;}
	.st49{clip-path:url(#SVGID_98_);fill:#3AAA35;}
	.st50{clip-path:url(#SVGID_100_);fill:#3AAA35;}
	.st51{clip-path:url(#SVGID_102_);fill:#3AAA35;}
	.st52{clip-path:url(#SVGID_104_);fill:#3AAA35;}
	.st53{clip-path:url(#SVGID_106_);fill:#3AAA35;}
	.st54{clip-path:url(#SVGID_108_);fill:#3AAA35;}
	.st55{clip-path:url(#SVGID_110_);fill:#3AAA35;}
	.st56{clip-path:url(#SVGID_112_);fill:#3AAA35;}
	.st57{clip-path:url(#SVGID_114_);fill:#3AAA35;}
	.st58{clip-path:url(#SVGID_116_);fill:#3AAA35;}
	.st59{clip-path:url(#SVGID_118_);fill:#3AAA35;}
	.st60{clip-path:url(#SVGID_120_);fill:#3AAA35;}
	.st61{clip-path:url(#SVGID_122_);fill:#3AAA35;}
	.st62{clip-path:url(#SVGID_124_);fill:#3AAA35;}
	.st63{clip-path:url(#SVGID_126_);fill:#3AAA35;}
	.st64{clip-path:url(#SVGID_128_);fill:#3AAA35;}
	.st65{clip-path:url(#SVGID_130_);fill:#3AAA35;}
	.st66{clip-path:url(#SVGID_132_);fill:#3AAA35;}
	.st67{clip-path:url(#SVGID_134_);fill:#3AAA35;}
	.st68{clip-path:url(#SVGID_136_);fill:#3AAA35;}
	.st69{clip-path:url(#SVGID_138_);fill:#3AAA35;}
	.st70{clip-path:url(#SVGID_140_);fill:#3AAA35;}
	.st71{clip-path:url(#SVGID_142_);fill:#3AAA35;}
	.st72{clip-path:url(#SVGID_144_);fill:#3AAA35;}
	.st73{clip-path:url(#SVGID_146_);fill:#3AAA35;}
	.st74{clip-path:url(#SVGID_148_);fill:#3AAA35;}
	.st75{clip-path:url(#SVGID_150_);fill:#3AAA35;}
	.st76{clip-path:url(#SVGID_152_);fill:#3AAA35;}
	.st77{clip-path:url(#SVGID_154_);fill:#3AAA35;}
	.st78{clip-path:url(#SVGID_156_);fill:#3AAA35;}
	.st79{clip-path:url(#SVGID_158_);fill:#3AAA35;}
	.st80{clip-path:url(#SVGID_160_);fill:#3AAA35;}
	.st81{clip-path:url(#SVGID_162_);fill:#3AAA35;}
	.st82{clip-path:url(#SVGID_164_);fill:#3AAA35;}
	.st83{clip-path:url(#SVGID_166_);fill:#3AAA35;}
	.st84{clip-path:url(#SVGID_168_);fill:#3AAA35;}
	.st85{clip-path:url(#SVGID_170_);fill:#3AAA35;}
	.st86{clip-path:url(#SVGID_172_);fill:#3AAA35;}
	.st87{clip-path:url(#SVGID_174_);fill:#3AAA35;}
	.st88{clip-path:url(#SVGID_176_);fill:#3AAA35;}
	.st89{clip-path:url(#SVGID_178_);fill:#3AAA35;}
	.st90{clip-path:url(#SVGID_180_);fill:#3AAA35;}
	.st91{clip-path:url(#SVGID_182_);fill:#3AAA35;}
	.st92{clip-path:url(#SVGID_184_);fill:#3AAA35;}
	.st93{clip-path:url(#SVGID_186_);fill:#3AAA35;}
	.st94{clip-path:url(#SVGID_188_);fill:#3AAA35;}
	.st95{clip-path:url(#SVGID_190_);fill:#3AAA35;}
	.st96{clip-path:url(#SVGID_192_);fill:#3AAA35;}
	.st97{clip-path:url(#SVGID_194_);fill:#3AAA35;}
	.st98{clip-path:url(#SVGID_196_);fill:#3AAA35;}
	.st99{clip-path:url(#SVGID_198_);fill:#3AAA35;}
	.st100{clip-path:url(#SVGID_200_);fill:#3AAA35;}
	.st101{clip-path:url(#SVGID_202_);fill:#3AAA35;}
	.st102{clip-path:url(#SVGID_204_);fill:#3AAA35;}
	.st103{clip-path:url(#SVGID_206_);fill:#3AAA35;}
	.st104{clip-path:url(#SVGID_208_);fill:#3AAA35;}
	.st105{clip-path:url(#SVGID_210_);fill:#3AAA35;}
	.st106{clip-path:url(#SVGID_212_);fill:#3AAA35;}
	.st107{clip-path:url(#SVGID_214_);fill:#3AAA35;}
	.st108{clip-path:url(#SVGID_216_);fill:#3AAA35;}
	.st109{clip-path:url(#SVGID_218_);fill:#3AAA35;}
	.st110{clip-path:url(#SVGID_220_);fill:#3AAA35;}
	.st111{clip-path:url(#SVGID_222_);fill:#3AAA35;}
	.st112{clip-path:url(#SVGID_224_);fill:#3AAA35;}
	.st113{clip-path:url(#SVGID_226_);fill:#3AAA35;}
	.st114{clip-path:url(#SVGID_228_);fill:#3AAA35;}
	.st115{clip-path:url(#SVGID_230_);fill:#3AAA35;}
	.st116{clip-path:url(#SVGID_232_);fill:#3AAA35;}
	.st117{clip-path:url(#SVGID_234_);fill:#3AAA35;}
	.st118{clip-path:url(#SVGID_236_);fill:#3AAA35;}
	.st119{clip-path:url(#SVGID_238_);fill:#3AAA35;}
	.st120{clip-path:url(#SVGID_240_);fill:#3AAA35;}
	.st121{clip-path:url(#SVGID_242_);fill:#3AAA35;}
	.st122{clip-path:url(#SVGID_244_);fill:#3AAA35;}
	.st123{clip-path:url(#SVGID_246_);fill:#3AAA35;}
	.st124{clip-path:url(#SVGID_248_);fill:#3AAA35;}
	.st125{clip-path:url(#SVGID_250_);fill:#3AAA35;}
	.st126{clip-path:url(#SVGID_252_);fill:#3AAA35;}
	.st127{clip-path:url(#SVGID_254_);fill:#3AAA35;}
	.st128{clip-path:url(#SVGID_256_);fill:#3AAA35;}
	.st129{clip-path:url(#SVGID_258_);fill:#3AAA35;}
	.st130{clip-path:url(#SVGID_260_);fill:#3AAA35;}
	.st131{clip-path:url(#SVGID_262_);fill:#3AAA35;}
	.st132{clip-path:url(#SVGID_264_);fill:#3AAA35;}
	.st133{clip-path:url(#SVGID_266_);fill:#3AAA35;}
	.st134{clip-path:url(#SVGID_268_);fill:#3AAA35;}
	.st135{clip-path:url(#SVGID_270_);fill:#3AAA35;}
	.st136{clip-path:url(#SVGID_272_);fill:#3AAA35;}
	.st137{clip-path:url(#SVGID_274_);fill:#3AAA35;}
	.st138{clip-path:url(#SVGID_276_);fill:#3AAA35;}
	.st139{clip-path:url(#SVGID_278_);fill:#3AAA35;}
	.st140{clip-path:url(#SVGID_280_);fill:#3AAA35;}
	.st141{clip-path:url(#SVGID_282_);fill:#3AAA35;}
	.st142{clip-path:url(#SVGID_284_);fill:#3AAA35;}
	.st143{clip-path:url(#SVGID_286_);fill:#3AAA35;}
	.st144{clip-path:url(#SVGID_288_);fill:#3AAA35;}
	.st145{clip-path:url(#SVGID_290_);fill:#3AAA35;}
	.st146{clip-path:url(#SVGID_292_);fill:#3AAA35;}
	.st147{clip-path:url(#SVGID_294_);fill:#3AAA35;}
	.st148{clip-path:url(#SVGID_296_);fill:#3AAA35;}
	.st149{clip-path:url(#SVGID_298_);fill:#3AAA35;}
	.st150{clip-path:url(#SVGID_300_);fill:#3AAA35;}
	.st151{clip-path:url(#SVGID_302_);fill:#3AAA35;}
	.st152{clip-path:url(#SVGID_304_);fill:#3AAA35;}
	.st153{clip-path:url(#SVGID_306_);fill:#3AAA35;}
	.st154{clip-path:url(#SVGID_308_);fill:#3AAA35;}
	.st155{clip-path:url(#SVGID_310_);fill:#3AAA35;}
	.st156{clip-path:url(#SVGID_312_);fill:#3AAA35;}
	.st157{clip-path:url(#SVGID_314_);fill:#3AAA35;}
	.st158{clip-path:url(#SVGID_316_);fill:#3AAA35;}
	.st159{clip-path:url(#SVGID_318_);fill:#3AAA35;}
	.st160{clip-path:url(#SVGID_320_);fill:#3AAA35;}
	.st161{clip-path:url(#SVGID_322_);fill:#3AAA35;}
	.st162{clip-path:url(#SVGID_324_);fill:#3AAA35;}
	.st163{clip-path:url(#SVGID_326_);fill:#3AAA35;}
	.st164{clip-path:url(#SVGID_328_);fill:#3AAA35;}
	.st165{clip-path:url(#SVGID_330_);fill:#3AAA35;}
	.st166{clip-path:url(#SVGID_332_);fill:#3AAA35;}
	.st167{clip-path:url(#SVGID_334_);fill:#3AAA35;}
	.st168{clip-path:url(#SVGID_336_);fill:#3AAA35;}
	.st169{clip-path:url(#SVGID_338_);fill:#3AAA35;}
	.st170{clip-path:url(#SVGID_340_);fill:#3AAA35;}
	.st171{clip-path:url(#SVGID_342_);fill:#3AAA35;}
	.st172{clip-path:url(#SVGID_344_);fill:#3AAA35;}
	.st173{clip-path:url(#SVGID_346_);fill:#3AAA35;}
	.st174{clip-path:url(#SVGID_348_);fill:#3AAA35;}
	.st175{clip-path:url(#SVGID_350_);fill:#3AAA35;}
	.st176{clip-path:url(#SVGID_352_);fill:#3AAA35;}
	.st177{clip-path:url(#SVGID_354_);fill:#3AAA35;}
	.st178{clip-path:url(#SVGID_356_);fill:#3AAA35;}
	.st179{clip-path:url(#SVGID_358_);fill:#3AAA35;}
	.st180{clip-path:url(#SVGID_360_);fill:#3AAA35;}
	.st181{clip-path:url(#SVGID_362_);fill:#3AAA35;}
	.st182{clip-path:url(#SVGID_364_);fill:#3AAA35;}
	.st183{clip-path:url(#SVGID_366_);fill:#3AAA35;}
	.st184{clip-path:url(#SVGID_368_);fill:#3AAA35;}
	.st185{clip-path:url(#SVGID_370_);fill:#3AAA35;}
	.st186{clip-path:url(#SVGID_372_);fill:#3AAA35;}
	.st187{clip-path:url(#SVGID_374_);fill:#3AAA35;}
	.st188{clip-path:url(#SVGID_376_);fill:#3AAA35;}
	.st189{clip-path:url(#SVGID_378_);fill:#3AAA35;}
	.st190{clip-path:url(#SVGID_380_);fill:#3AAA35;}
	.st191{clip-path:url(#SVGID_382_);fill:#3AAA35;}
	.st192{clip-path:url(#SVGID_384_);fill:#3AAA35;}
	.st193{clip-path:url(#SVGID_386_);fill:#3AAA35;}
	.st194{clip-path:url(#SVGID_388_);fill:#3AAA35;}
	.st195{clip-path:url(#SVGID_390_);fill:#3AAA35;}
	.st196{clip-path:url(#SVGID_392_);fill:#3AAA35;}
	.st197{clip-path:url(#SVGID_394_);fill:#3AAA35;}
	.st198{clip-path:url(#SVGID_396_);fill:#3AAA35;}
	.st199{clip-path:url(#SVGID_398_);fill:#3AAA35;}
	.st200{clip-path:url(#SVGID_400_);fill:#3AAA35;}
	.st201{clip-path:url(#SVGID_402_);fill:#3AAA35;}
	.st202{clip-path:url(#SVGID_404_);fill:#3AAA35;}
	.st203{clip-path:url(#SVGID_406_);fill:#3AAA35;}
	.st204{clip-path:url(#SVGID_408_);fill:#3AAA35;}
	.st205{fill:#23A55A;}
	.st206{fill:#10799E;}
	.st207{fill:#FFFFFF;}
</style>
<g>
	<g>
		<g>
			<path class="st205" d="M85.7,47.7c0.8,0,1.6,0.7,1.6,1.6c-0.1,0.8-0.8,1.5-1.7,1.4c-0.7-0.1-1.4-0.6-1.4-1.4
				C84.2,48.3,84.9,47.7,85.7,47.7z"/>
		</g>
		<g>
			<path class="st205" d="M82.7,38.6c-0.8-0.1-1.6,0.6-1.6,1.4c0,0.1,0,0.2,0,0.3v4.3c0,1.8-0.7,3.2-2.5,3.2c-0.2,0-2.5-0.1-2.5-2.1
				v-7.4c0.1-1.2-0.8-2.3-2-2.4c-0.1,0-0.2,0-0.3,0c-0.9-0.1-1.8,0.4-2.2,1.1l-6.5,7.6c-0.4,0.5-0.6,1-0.6,1.6
				c0,0.6,0.4,1.2,1.6,1.2h4.3c1.1,0,1.7-0.6,1.7-1.4s-0.6-1.4-1.7-1.4h-2l4.9-5.3v6.4c0,2.9,2.5,5.3,5.3,5.3c0.1,0,0.1,0,0.2,0
				c3.4,0,5.6-2.6,5.6-6.3v-4.2c0.1-0.8-0.5-1.6-1.3-1.7C82.9,38.6,82.8,38.6,82.7,38.6z"/>
		</g>
		<path class="st205" d="M0,43.4c0-0.7,0.5-1.3,1.2-1.3c0.7,0,1.1,0.4,1.2,0.8c0.4-0.5,1-1,1.7-1c0.6,0,1.3,0.5,1.3,1.3
			c0,0.9-0.7,1.1-1.6,1.3c-1.1,0.3-1.4,0.6-1.4,1.9v3c0,0.7-0.5,1.3-1.2,1.3S0,50.2,0,49.5V43.4z"/>
		<path class="st205" d="M7.9,47.3c0,0.5,0.4,1.4,2,1.4c1.2,0,2-0.8,2.5-0.8c0.6,0,1,0.4,1,1.1c0,1.2-2,2-3.9,2
			c-2.7,0-4.3-2-4.3-4.5c0-2.4,1.8-4.5,4.3-4.5c2.5,0,4,2.1,4,4.2c0,0.9-0.4,1.1-1.2,1.1H7.9z M11.2,45.6c0-0.6-0.6-1.5-1.6-1.5
			S7.9,45,7.9,45.6H11.2z"/>
		<path class="st205" d="M14.5,43.4c0-0.7,0.5-1.3,1.2-1.3c0.7,0,1.1,0.4,1.2,0.8c0.4-0.6,1.2-1,2.1-1c0.7,0,1.7,0.3,2.3,1
			c0.6-0.4,1.3-1,2.4-1c1.7,0,3.1,0.9,3.1,2.9v4.6c0,0.7-0.5,1.3-1.2,1.3c-0.7,0-1.2-0.6-1.2-1.3v-3.9c0-0.8-0.4-1.5-1.2-1.5
			c-0.8,0-1.2,0.7-1.2,1.5v3.9c0,0.7-0.5,1.3-1.2,1.3c-0.7,0-1.2-0.6-1.2-1.3v-3.9c0-0.8-0.4-1.5-1.2-1.5c-0.8,0-1.2,0.7-1.2,1.5
			v3.9c0,0.7-0.5,1.3-1.2,1.3c-0.7,0-1.2-0.6-1.2-1.3V43.4z"/>
		<path class="st205" d="M30.4,47.3c0,0.5,0.4,1.4,2,1.4c1.2,0,2-0.8,2.5-0.8c0.6,0,1,0.4,1,1.1c0,1.2-2,2-3.9,2
			c-2.7,0-4.3-2-4.3-4.5c0-2.4,1.8-4.5,4.3-4.5c2.5,0,4,2.1,4,4.2c0,0.9-0.4,1.1-1.2,1.1H30.4z M33.6,45.6c0-0.6-0.6-1.5-1.6-1.5
			s-1.6,0.9-1.6,1.5H33.6z"/>
		<path class="st205" d="M44.9,49.5c0,0.7-0.5,1.3-1.2,1.3c-0.6,0-1-0.4-1.2-0.8c-0.6,0.7-1.2,1-2.1,1c-2.2,0-3.8-2-3.8-4.5
			s1.7-4.5,3.8-4.5c1.1,0,1.6,0.3,2.1,0.7v-2.9c0-0.7,0.5-1.3,1.2-1.3s1.2,0.6,1.2,1.3V49.5z M39,46.5c0,1.1,0.6,2.1,1.7,2.1
			c1.1,0,1.7-1,1.7-2.1c0-1.1-0.6-2.1-1.7-2.1C39.6,44.4,39,45.3,39,46.5z"/>
		<path class="st205" d="M47.2,38.4c0.8,0,1.5,0.7,1.5,1.5c0,0.8-0.7,1.5-1.5,1.5c-0.8,0-1.5-0.7-1.5-1.5
			C45.7,39.1,46.4,38.4,47.2,38.4z M46,43.4c0-0.7,0.5-1.3,1.2-1.3s1.2,0.6,1.2,1.3v6.1c0,0.7-0.5,1.3-1.2,1.3S46,50.2,46,49.5V43.4
			z"/>
		<path class="st205" d="M51.9,47.3c0,0.5,0.4,1.4,2,1.4c1.2,0,2-0.8,2.5-0.8c0.6,0,1,0.4,1,1.1c0,1.2-2,2-3.9,2
			c-2.7,0-4.3-2-4.3-4.5c0-2.4,1.8-4.5,4.3-4.5c2.5,0,4,2.1,4,4.2c0,0.9-0.4,1.1-1.2,1.1H51.9z M55.1,45.6c0-0.6-0.6-1.5-1.6-1.5
			c-1,0-1.6,0.9-1.6,1.5H55.1z"/>
		<path class="st205" d="M59,48c0.8,0,1.3,0.7,2.4,0.7c0.5,0,0.7-0.2,0.7-0.5c0-0.5-0.5-0.6-1.9-1.1c-1.3-0.5-2-1-2-2.3
			c0-1.4,1.2-2.8,3.2-2.8c1,0,2.9,0.5,2.9,1.8c0,0.6-0.4,1.1-1,1.1c-0.5,0-1.2-0.6-2-0.6c-0.3,0-0.7,0.2-0.7,0.5
			c0,1,3.9,0.7,3.9,3.5c0,1.8-1.5,2.8-3.2,2.8c-1.6,0-3.3-0.6-3.3-1.7C58,48.5,58.4,48,59,48z"/>
	</g>
	<g>
		<path class="st206" d="M50.9,15.9h-4.3v-4.3c0-1.3-0.9-2.2-2.2-2.2h-1.5c-1.3,0-2.2,0.9-2.2,2.2v4.3h-4.3c-1.3,0-2.2,0.9-2.2,2.2
			v1.3c0,1.3,0.9,2.2,2.2,2.2h4.3V26c0,0.6,0.2,1.1,0.6,1.7c0.4,0.4,0.9,0.7,1.7,0.7h1.3c1.3,0,2.2-0.9,2.2-2.2v-4.3h4.3
			c1.3,0,2.2-0.9,2.2-2.2v-1.3C53.1,17.1,52.2,15.9,50.9,15.9z M50.9,17.3c0.6,0,0.9,0.4,0.9,0.9v1.3c0,0.6-0.4,0.9-0.9,0.9
			c-0.6,0-1.1,0-1.9,0c-1.1,0-2.2,0-2.4,0c-1.3-0.4-4.1-2.6-4.7-3.7c0-0.2,0-3.2,0-5c0-0.6,0.4-0.9,0.9-0.9h1.3
			c0.6,0,0.9,0.4,0.9,0.9v5.6H50.9z"/>
		<path class="st205" d="M52.8,8.3c-2-1.9-4.7-3-7.5-3.4c1.3-1.3,2.4-2.8,3-3c0.2,0,0.2-0.2,0.2-0.4c0-0.2,0-0.2-0.2-0.4
			c-4.5-1.7-8.4-1.7-11.7,0.2c-3,1.7-3.5,3.9-3.5,5.2c4.1-4.3,11.4-4.1,11.4-4.1c-7.1,1.1-11,6.3-11.4,6.9c0,0,0,0,0,0.2
			c-5,5.8-4.5,14.7,1.5,19.7c2.6,2.2,6,3.4,9.1,3.4c3.9,0,7.8-1.7,10.6-4.8C59.3,22.3,58.7,13.5,52.8,8.3z M44.2,31
			c-0.2,0-0.4,0-0.6,0c0,0,0,0-0.2,0c-6.5,0-11.9-5.4-11.9-11.9c0-3.4,1.3-6.5,3.9-8.9c3,0.2,5.2-0.2,6.5-1.5
			c0.6-0.6,1.1-1.1,1.9-1.9H44c6.5,0,11.9,5.2,11.9,11.7C56.1,25.3,50.9,30.9,44.2,31z"/>
	</g>
</g>
</svg>
